<?xml version="1.0" encoding="utf-8" standalone="no"?>
<!DOCTYPE svg PUBLIC "-//W3C//DTD SVG 1.1//EN"
  "http://www.w3.org/Graphics/SVG/1.1/DTD/svg11.dtd">
<!-- Created with matplotlib (https://matplotlib.org/) -->
<svg height="895.68pt" version="1.1" viewBox="0 0 1785.6 895.68" width="1785.6pt" xmlns="http://www.w3.org/2000/svg" xmlns:xlink="http://www.w3.org/1999/xlink">
 <metadata>
  <rdf:RDF xmlns:cc="http://creativecommons.org/ns#" xmlns:dc="http://purl.org/dc/elements/1.1/" xmlns:rdf="http://www.w3.org/1999/02/22-rdf-syntax-ns#">
   <cc:Work>
    <dc:type rdf:resource="http://purl.org/dc/dcmitype/StillImage"/>
    <dc:date>2022-02-21T03:54:57.315412</dc:date>
    <dc:format>image/svg+xml</dc:format>
    <dc:creator>
     <cc:Agent>
      <dc:title>Matplotlib v3.3.1, https://matplotlib.org/</dc:title>
     </cc:Agent>
    </dc:creator>
   </cc:Work>
  </rdf:RDF>
 </metadata>
 <defs>
  <style type="text/css">*{stroke-linecap:butt;stroke-linejoin:round;}</style>
 </defs>
 <g id="figure_1">
  <g id="patch_1">
   <path d="M 0 895.68 
L 1785.6 895.68 
L 1785.6 0 
L 0 0 
z
" style="fill:#ffffff;"/>
  </g>
  <g id="axes_1">
   <g id="patch_2">
    <path d="M 223.2 510.5376 
L 1607.04 510.5376 
L 1607.04 107.4816 
L 223.2 107.4816 
z
" style="fill:#ffffff;"/>
   </g>
   <g id="patch_3">
    <path clip-path="url(#p29f2ac4820)" d="M 286.101818 230804.737425 
L 299.344306 230804.737425 
L 299.344306 179.707788 
L 286.101818 179.707788 
z
" style="fill:url(#h8af0a39ca9);stroke:#000000;stroke-linejoin:miter;"/>
   </g>
   <g id="patch_4">
    <path clip-path="url(#p29f2ac4820)" d="M 339.07177 230804.737425 
L 352.314258 230804.737425 
L 352.314258 266.055531 
L 339.07177 266.055531 
z
" style="fill:url(#h8af0a39ca9);stroke:#000000;stroke-linejoin:miter;"/>
   </g>
   <g id="patch_5">
    <path clip-path="url(#p29f2ac4820)" d="M 392.041722 230804.737425 
L 405.284211 230804.737425 
L 405.284211 308.6221 
L 392.041722 308.6221 
z
" style="fill:url(#h8af0a39ca9);stroke:#000000;stroke-linejoin:miter;"/>
   </g>
   <g id="patch_6">
    <path clip-path="url(#p29f2ac4820)" d="M 445.011675 230804.737425 
L 458.254163 230804.737425 
L 458.254163 342.079033 
L 445.011675 342.079033 
z
" style="fill:url(#h8af0a39ca9);stroke:#000000;stroke-linejoin:miter;"/>
   </g>
   <g id="patch_7">
    <path clip-path="url(#p29f2ac4820)" d="M 497.981627 230804.737425 
L 511.224115 230804.737425 
L 511.224115 366.031212 
L 497.981627 366.031212 
z
" style="fill:url(#h8af0a39ca9);stroke:#000000;stroke-linejoin:miter;"/>
   </g>
   <g id="patch_8">
    <path clip-path="url(#p29f2ac4820)" d="M 550.951579 230804.737425 
L 564.194067 230804.737425 
L 564.194067 382.692578 
L 550.951579 382.692578 
z
" style="fill:url(#h8af0a39ca9);stroke:#000000;stroke-linejoin:miter;"/>
   </g>
   <g id="patch_9">
    <path clip-path="url(#p29f2ac4820)" d="M 603.921531 230804.737425 
L 617.164019 230804.737425 
L 617.164019 398.704949 
L 603.921531 398.704949 
z
" style="fill:url(#h8af0a39ca9);stroke:#000000;stroke-linejoin:miter;"/>
   </g>
   <g id="patch_10">
    <path clip-path="url(#p29f2ac4820)" d="M 656.891483 230804.737425 
L 670.133971 230804.737425 
L 670.133971 409.696436 
L 656.891483 409.696436 
z
" style="fill:url(#h8af0a39ca9);stroke:#000000;stroke-linejoin:miter;"/>
   </g>
   <g id="patch_11">
    <path clip-path="url(#p29f2ac4820)" d="M 709.861435 230804.737425 
L 723.103923 230804.737425 
L 723.103923 421.81691 
L 709.861435 421.81691 
z
" style="fill:url(#h8af0a39ca9);stroke:#000000;stroke-linejoin:miter;"/>
   </g>
   <g id="patch_12">
    <path clip-path="url(#p29f2ac4820)" d="M 762.831388 230804.737425 
L 776.073876 230804.737425 
L 776.073876 429.00196 
L 762.831388 429.00196 
z
" style="fill:url(#h8af0a39ca9);stroke:#000000;stroke-linejoin:miter;"/>
   </g>
   <g id="patch_13">
    <path clip-path="url(#p29f2ac4820)" d="M 815.80134 230804.737425 
L 829.043828 230804.737425 
L 829.043828 439.353896 
L 815.80134 439.353896 
z
" style="fill:url(#h8af0a39ca9);stroke:#000000;stroke-linejoin:miter;"/>
   </g>
   <g id="patch_14">
    <path clip-path="url(#p29f2ac4820)" d="M 868.771292 230804.737425 
L 882.01378 230804.737425 
L 882.01378 444.183272 
L 868.771292 444.183272 
z
" style="fill:url(#h8af0a39ca9);stroke:#000000;stroke-linejoin:miter;"/>
   </g>
   <g id="patch_15">
    <path clip-path="url(#p29f2ac4820)" d="M 921.741244 230804.737425 
L 934.983732 230804.737425 
L 934.983732 449.795577 
L 921.741244 449.795577 
z
" style="fill:url(#h8af0a39ca9);stroke:#000000;stroke-linejoin:miter;"/>
   </g>
   <g id="patch_16">
    <path clip-path="url(#p29f2ac4820)" d="M 974.711196 230804.737425 
L 987.953684 230804.737425 
L 987.953684 450.731578 
L 974.711196 450.731578 
z
" style="fill:url(#h8af0a39ca9);stroke:#000000;stroke-linejoin:miter;"/>
   </g>
   <g id="patch_17">
    <path clip-path="url(#p29f2ac4820)" d="M 1027.681148 230804.737425 
L 1040.923636 230804.737425 
L 1040.923636 462.418594 
L 1027.681148 462.418594 
z
" style="fill:url(#h8af0a39ca9);stroke:#000000;stroke-linejoin:miter;"/>
   </g>
   <g id="patch_18">
    <path clip-path="url(#p29f2ac4820)" d="M 1080.6511 230804.737425 
L 1093.893589 230804.737425 
L 1093.893589 458.650085 
L 1080.6511 458.650085 
z
" style="fill:url(#h8af0a39ca9);stroke:#000000;stroke-linejoin:miter;"/>
   </g>
   <g id="patch_19">
    <path clip-path="url(#p29f2ac4820)" d="M 1133.621053 230804.737425 
L 1146.863541 230804.737425 
L 1146.863541 465.312162 
L 1133.621053 465.312162 
z
" style="fill:url(#h8af0a39ca9);stroke:#000000;stroke-linejoin:miter;"/>
   </g>
   <g id="patch_20">
    <path clip-path="url(#p29f2ac4820)" d="M 1186.591005 230804.737425 
L 1199.833493 230804.737425 
L 1199.833493 459.30292 
L 1186.591005 459.30292 
z
" style="fill:url(#h8af0a39ca9);stroke:#000000;stroke-linejoin:miter;"/>
   </g>
   <g id="patch_21">
    <path clip-path="url(#p29f2ac4820)" d="M 1239.560957 230804.737425 
L 1252.803445 230804.737425 
L 1252.803445 467.700059 
L 1239.560957 467.700059 
z
" style="fill:url(#h8af0a39ca9);stroke:#000000;stroke-linejoin:miter;"/>
   </g>
   <g id="patch_22">
    <path clip-path="url(#p29f2ac4820)" d="M 1292.530909 230804.737425 
L 1305.773397 230804.737425 
L 1305.773397 441.302589 
L 1292.530909 441.302589 
z
" style="fill:url(#h8af0a39ca9);stroke:#000000;stroke-linejoin:miter;"/>
   </g>
   <g id="patch_23">
    <path clip-path="url(#p29f2ac4820)" d="M 1345.500861 230804.737425 
L 1358.743349 230804.737425 
L 1358.743349 470.501404 
L 1345.500861 470.501404 
z
" style="fill:url(#h8af0a39ca9);stroke:#000000;stroke-linejoin:miter;"/>
   </g>
   <g id="patch_24">
    <path clip-path="url(#p29f2ac4820)" d="M 1398.470813 230804.737425 
L 1411.713301 230804.737425 
L 1411.713301 460.520807 
L 1398.470813 460.520807 
z
" style="fill:url(#h8af0a39ca9);stroke:#000000;stroke-linejoin:miter;"/>
   </g>
   <g id="patch_25">
    <path clip-path="url(#p29f2ac4820)" d="M 1451.440766 230804.737425 
L 1464.683254 230804.737425 
L 1464.683254 474.141012 
L 1451.440766 474.141012 
z
" style="fill:url(#h8af0a39ca9);stroke:#000000;stroke-linejoin:miter;"/>
   </g>
   <g id="patch_26">
    <path clip-path="url(#p29f2ac4820)" d="M 1504.410718 230804.737425 
L 1517.653206 230804.737425 
L 1517.653206 475.415588 
L 1504.410718 475.415588 
z
" style="fill:url(#h8af0a39ca9);stroke:#000000;stroke-linejoin:miter;"/>
   </g>
   <g id="patch_27">
    <path clip-path="url(#p29f2ac4820)" d="M 299.344306 230804.737425 
L 312.586794 230804.737425 
L 312.586794 125.802327 
L 299.344306 125.802327 
z
" style="fill:#7c7c7c;stroke:#000000;stroke-linejoin:miter;"/>
   </g>
   <g id="patch_28">
    <path clip-path="url(#p29f2ac4820)" d="M 352.314258 230804.737425 
L 365.556746 230804.737425 
L 365.556746 220.786266 
L 352.314258 220.786266 
z
" style="fill:#7c7c7c;stroke:#000000;stroke-linejoin:miter;"/>
   </g>
   <g id="patch_29">
    <path clip-path="url(#p29f2ac4820)" d="M 405.284211 230804.737425 
L 418.526699 230804.737425 
L 418.526699 263.629277 
L 405.284211 263.629277 
z
" style="fill:#7c7c7c;stroke:#000000;stroke-linejoin:miter;"/>
   </g>
   <g id="patch_30">
    <path clip-path="url(#p29f2ac4820)" d="M 458.254163 230804.737425 
L 471.496651 230804.737425 
L 471.496651 299.339454 
L 458.254163 299.339454 
z
" style="fill:#7c7c7c;stroke:#000000;stroke-linejoin:miter;"/>
   </g>
   <g id="patch_31">
    <path clip-path="url(#p29f2ac4820)" d="M 511.224115 230804.737425 
L 524.466603 230804.737425 
L 524.466603 319.211431 
L 511.224115 319.211431 
z
" style="fill:#7c7c7c;stroke:#000000;stroke-linejoin:miter;"/>
   </g>
   <g id="patch_32">
    <path clip-path="url(#p29f2ac4820)" d="M 564.194067 230804.737425 
L 577.436555 230804.737425 
L 577.436555 338.820428 
L 564.194067 338.820428 
z
" style="fill:#7c7c7c;stroke:#000000;stroke-linejoin:miter;"/>
   </g>
   <g id="patch_33">
    <path clip-path="url(#p29f2ac4820)" d="M 617.164019 230804.737425 
L 630.406507 230804.737425 
L 630.406507 351.286739 
L 617.164019 351.286739 
z
" style="fill:#7c7c7c;stroke:#000000;stroke-linejoin:miter;"/>
   </g>
   <g id="patch_34">
    <path clip-path="url(#p29f2ac4820)" d="M 670.133971 230804.737425 
L 683.376459 230804.737425 
L 683.376459 363.476593 
L 670.133971 363.476593 
z
" style="fill:#7c7c7c;stroke:#000000;stroke-linejoin:miter;"/>
   </g>
   <g id="patch_35">
    <path clip-path="url(#p29f2ac4820)" d="M 723.103923 230804.737425 
L 736.346411 230804.737425 
L 736.346411 373.373107 
L 723.103923 373.373107 
z
" style="fill:#7c7c7c;stroke:#000000;stroke-linejoin:miter;"/>
   </g>
   <g id="patch_36">
    <path clip-path="url(#p29f2ac4820)" d="M 776.073876 230804.737425 
L 789.316364 230804.737425 
L 789.316364 382.082077 
L 776.073876 382.082077 
z
" style="fill:#7c7c7c;stroke:#000000;stroke-linejoin:miter;"/>
   </g>
   <g id="patch_37">
    <path clip-path="url(#p29f2ac4820)" d="M 829.043828 230804.737425 
L 842.286316 230804.737425 
L 842.286316 388.235602 
L 829.043828 388.235602 
z
" style="fill:#7c7c7c;stroke:#000000;stroke-linejoin:miter;"/>
   </g>
   <g id="patch_38">
    <path clip-path="url(#p29f2ac4820)" d="M 882.01378 230804.737425 
L 895.256268 230804.737425 
L 895.256268 394.252473 
L 882.01378 394.252473 
z
" style="fill:#7c7c7c;stroke:#000000;stroke-linejoin:miter;"/>
   </g>
   <g id="patch_39">
    <path clip-path="url(#p29f2ac4820)" d="M 934.983732 230804.737425 
L 948.22622 230804.737425 
L 948.22622 399.148994 
L 934.983732 399.148994 
z
" style="fill:#7c7c7c;stroke:#000000;stroke-linejoin:miter;"/>
   </g>
   <g id="patch_40">
    <path clip-path="url(#p29f2ac4820)" d="M 987.953684 230804.737425 
L 1001.196172 230804.737425 
L 1001.196172 400.963885 
L 987.953684 400.963885 
z
" style="fill:#7c7c7c;stroke:#000000;stroke-linejoin:miter;"/>
   </g>
   <g id="patch_41">
    <path clip-path="url(#p29f2ac4820)" d="M 1040.923636 230804.737425 
L 1054.166124 230804.737425 
L 1054.166124 408.904606 
L 1040.923636 408.904606 
z
" style="fill:#7c7c7c;stroke:#000000;stroke-linejoin:miter;"/>
   </g>
   <g id="patch_42">
    <path clip-path="url(#p29f2ac4820)" d="M 1093.893589 230804.737425 
L 1107.136077 230804.737425 
L 1107.136077 401.938996 
L 1093.893589 401.938996 
z
" style="fill:#7c7c7c;stroke:#000000;stroke-linejoin:miter;"/>
   </g>
   <g id="patch_43">
    <path clip-path="url(#p29f2ac4820)" d="M 1146.863541 230804.737425 
L 1160.106029 230804.737425 
L 1160.106029 410.548642 
L 1146.863541 410.548642 
z
" style="fill:#7c7c7c;stroke:#000000;stroke-linejoin:miter;"/>
   </g>
   <g id="patch_44">
    <path clip-path="url(#p29f2ac4820)" d="M 1199.833493 230804.737425 
L 1213.075981 230804.737425 
L 1213.075981 398.42439 
L 1199.833493 398.42439 
z
" style="fill:#7c7c7c;stroke:#000000;stroke-linejoin:miter;"/>
   </g>
   <g id="patch_45">
    <path clip-path="url(#p29f2ac4820)" d="M 1252.803445 230804.737425 
L 1266.045933 230804.737425 
L 1266.045933 415.38294 
L 1252.803445 415.38294 
z
" style="fill:#7c7c7c;stroke:#000000;stroke-linejoin:miter;"/>
   </g>
   <g id="patch_46">
    <path clip-path="url(#p29f2ac4820)" d="M 1305.773397 230804.737425 
L 1319.015885 230804.737425 
L 1319.015885 372.725673 
L 1305.773397 372.725673 
z
" style="fill:#7c7c7c;stroke:#000000;stroke-linejoin:miter;"/>
   </g>
   <g id="patch_47">
    <path clip-path="url(#p29f2ac4820)" d="M 1358.743349 230804.737425 
L 1371.985837 230804.737425 
L 1371.985837 413.975202 
L 1358.743349 413.975202 
z
" style="fill:#7c7c7c;stroke:#000000;stroke-linejoin:miter;"/>
   </g>
   <g id="patch_48">
    <path clip-path="url(#p29f2ac4820)" d="M 1411.713301 230804.737425 
L 1424.955789 230804.737425 
L 1424.955789 358.20241 
L 1411.713301 358.20241 
z
" style="fill:#7c7c7c;stroke:#000000;stroke-linejoin:miter;"/>
   </g>
   <g id="patch_49">
    <path clip-path="url(#p29f2ac4820)" d="M 1464.683254 230804.737425 
L 1477.925742 230804.737425 
L 1477.925742 417.401353 
L 1464.683254 417.401353 
z
" style="fill:#7c7c7c;stroke:#000000;stroke-linejoin:miter;"/>
   </g>
   <g id="patch_50">
    <path clip-path="url(#p29f2ac4820)" d="M 1517.653206 230804.737425 
L 1530.895694 230804.737425 
L 1530.895694 418.660994 
L 1517.653206 418.660994 
z
" style="fill:#7c7c7c;stroke:#000000;stroke-linejoin:miter;"/>
   </g>
   <g id="patch_51">
    <path clip-path="url(#p29f2ac4820)" d="M 312.586794 230804.737425 
L 325.829282 230804.737425 
L 325.829282 204.688923 
L 312.586794 204.688923 
z
" style="stroke:#000000;stroke-linejoin:miter;"/>
   </g>
   <g id="patch_52">
    <path clip-path="url(#p29f2ac4820)" d="M 365.556746 230804.737425 
L 378.799234 230804.737425 
L 378.799234 300.302399 
L 365.556746 300.302399 
z
" style="stroke:#000000;stroke-linejoin:miter;"/>
   </g>
   <g id="patch_53">
    <path clip-path="url(#p29f2ac4820)" d="M 418.526699 230804.737425 
L 431.769187 230804.737425 
L 431.769187 343.387248 
L 418.526699 343.387248 
z
" style="stroke:#000000;stroke-linejoin:miter;"/>
   </g>
   <g id="patch_54">
    <path clip-path="url(#p29f2ac4820)" d="M 471.496651 230804.737425 
L 484.739139 230804.737425 
L 484.739139 376.137783 
L 471.496651 376.137783 
z
" style="stroke:#000000;stroke-linejoin:miter;"/>
   </g>
   <g id="patch_55">
    <path clip-path="url(#p29f2ac4820)" d="M 524.466603 230804.737425 
L 537.709091 230804.737425 
L 537.709091 397.687195 
L 524.466603 397.687195 
z
" style="stroke:#000000;stroke-linejoin:miter;"/>
   </g>
   <g id="patch_56">
    <path clip-path="url(#p29f2ac4820)" d="M 577.436555 230804.737425 
L 590.679043 230804.737425 
L 590.679043 412.195261 
L 577.436555 412.195261 
z
" style="stroke:#000000;stroke-linejoin:miter;"/>
   </g>
   <g id="patch_57">
    <path clip-path="url(#p29f2ac4820)" d="M 630.406507 230804.737425 
L 643.648995 230804.737425 
L 643.648995 430.103087 
L 630.406507 430.103087 
z
" style="stroke:#000000;stroke-linejoin:miter;"/>
   </g>
   <g id="patch_58">
    <path clip-path="url(#p29f2ac4820)" d="M 683.376459 230804.737425 
L 696.618947 230804.737425 
L 696.618947 428.146821 
L 683.376459 428.146821 
z
" style="stroke:#000000;stroke-linejoin:miter;"/>
   </g>
   <g id="patch_59">
    <path clip-path="url(#p29f2ac4820)" d="M 736.346411 230804.737425 
L 749.5889 230804.737425 
L 749.5889 449.776068 
L 736.346411 449.776068 
z
" style="stroke:#000000;stroke-linejoin:miter;"/>
   </g>
   <g id="patch_60">
    <path clip-path="url(#p29f2ac4820)" d="M 789.316364 230804.737425 
L 802.558852 230804.737425 
L 802.558852 453.290894 
L 789.316364 453.290894 
z
" style="stroke:#000000;stroke-linejoin:miter;"/>
   </g>
   <g id="patch_61">
    <path clip-path="url(#p29f2ac4820)" d="M 842.286316 230804.737425 
L 855.528804 230804.737425 
L 855.528804 464.924842 
L 842.286316 464.924842 
z
" style="stroke:#000000;stroke-linejoin:miter;"/>
   </g>
   <g id="patch_62">
    <path clip-path="url(#p29f2ac4820)" d="M 895.256268 230804.737425 
L 908.498756 230804.737425 
L 908.498756 457.136009 
L 895.256268 457.136009 
z
" style="stroke:#000000;stroke-linejoin:miter;"/>
   </g>
   <g id="patch_63">
    <path clip-path="url(#p29f2ac4820)" d="M 948.22622 230804.737425 
L 961.468708 230804.737425 
L 961.468708 477.363529 
L 948.22622 477.363529 
z
" style="stroke:#000000;stroke-linejoin:miter;"/>
   </g>
   <g id="patch_64">
    <path clip-path="url(#p29f2ac4820)" d="M 1001.196172 230804.737425 
L 1014.43866 230804.737425 
L 1014.43866 438.397163 
L 1001.196172 438.397163 
z
" style="stroke:#000000;stroke-linejoin:miter;"/>
   </g>
   <g id="patch_65">
    <path clip-path="url(#p29f2ac4820)" d="M 1054.166124 230804.737425 
L 1067.408612 230804.737425 
L 1067.408612 481.995971 
L 1054.166124 481.995971 
z
" style="stroke:#000000;stroke-linejoin:miter;"/>
   </g>
   <g id="patch_66">
    <path clip-path="url(#p29f2ac4820)" d="M 1107.136077 230804.737425 
L 1120.378565 230804.737425 
L 1120.378565 431.34256 
L 1107.136077 431.34256 
z
" style="stroke:#000000;stroke-linejoin:miter;"/>
   </g>
   <g id="patch_67">
    <path clip-path="url(#p29f2ac4820)" d="M 1160.106029 230804.737425 
L 1173.348517 230804.737425 
L 1173.348517 485.854752 
L 1160.106029 485.854752 
z
" style="stroke:#000000;stroke-linejoin:miter;"/>
   </g>
   <g id="patch_68">
    <path clip-path="url(#p29f2ac4820)" d="M 1213.075981 230804.737425 
L 1226.318469 230804.737425 
L 1226.318469 421.603732 
L 1213.075981 421.603732 
z
" style="stroke:#000000;stroke-linejoin:miter;"/>
   </g>
   <g id="patch_69">
    <path clip-path="url(#p29f2ac4820)" d="M 1266.045933 230804.737425 
L 1279.288421 230804.737425 
L 1279.288421 489.171484 
L 1266.045933 489.171484 
z
" style="stroke:#000000;stroke-linejoin:miter;"/>
   </g>
   <g id="patch_70">
    <path clip-path="url(#p29f2ac4820)" d="M 1319.015885 230804.737425 
L 1332.258373 230804.737425 
L 1332.258373 362.620832 
L 1319.015885 362.620832 
z
" style="stroke:#000000;stroke-linejoin:miter;"/>
   </g>
   <g id="patch_71">
    <path clip-path="url(#p29f2ac4820)" d="M 1371.985837 230804.737425 
L 1385.228325 230804.737425 
L 1385.228325 486.55662 
L 1371.985837 486.55662 
z
" style="stroke:#000000;stroke-linejoin:miter;"/>
   </g>
   <g id="patch_72">
    <path clip-path="url(#p29f2ac4820)" d="M 1424.955789 230804.737425 
L 1438.198278 230804.737425 
L 1438.198278 387.74856 
L 1424.955789 387.74856 
z
" style="stroke:#000000;stroke-linejoin:miter;"/>
   </g>
   <g id="patch_73">
    <path clip-path="url(#p29f2ac4820)" d="M 1477.925742 230804.737425 
L 1491.16823 230804.737425 
L 1491.16823 492.216873 
L 1477.925742 492.216873 
z
" style="stroke:#000000;stroke-linejoin:miter;"/>
   </g>
   <g id="patch_74">
    <path clip-path="url(#p29f2ac4820)" d="M 1530.895694 230804.737425 
L 1544.138182 230804.737425 
L 1544.138182 464.405044 
L 1530.895694 464.405044 
z
" style="stroke:#000000;stroke-linejoin:miter;"/>
   </g>
   <g id="matplotlib.axis_1">
    <g id="xtick_1">
     <g id="line2d_1">
      <defs>
       <path d="M 0 0 
L 0 3.5 
" id="m44767d9cce" style="stroke:#000000;stroke-width:0.8;"/>
      </defs>
      <g>
       <use style="stroke:#000000;stroke-width:0.8;" x="305.96555" xlink:href="#m44767d9cce" y="510.5376"/>
      </g>
     </g>
     <g id="text_1">
      <!-- 100 -->
      <g transform="translate(298.553897 590.052945)rotate(-60)scale(0.4 -0.4)">
       <defs>
        <path d="M 49.59375 0 
L 49.59375 4.703125 
L 44.09375 4.703125 
C 38.796875 4.703125 36.59375 5.09375 35.796875 6.09375 
C 35.09375 6.796875 35.09375 6.796875 35.09375 12.296875 
L 35.09375 53.59375 
C 35.09375 58.5 35.296875 63.296875 35.796875 70.40625 
L 32.203125 70.40625 
C 28.796875 66.296875 19.59375 63 10.40625 63 
L 10.40625 58.703125 
L 19.203125 58.703125 
C 25 58.703125 25.40625 58.296875 25.40625 52.40625 
L 25.40625 9.40625 
C 25.40625 5.203125 24.5 4.703125 16.5 4.703125 
L 10 4.703125 
L 10 0 
z
" id="TeXGyreScholaMath-Regular-49"/>
        <path d="M 51.40625 33.90625 
C 51.40625 54.203125 42.40625 70.40625 28.40625 70.40625 
C 14.40625 70.40625 4.203125 55.09375 4.203125 34.203125 
C 4.203125 13.59375 14.09375 -1.5 27.59375 -1.5 
C 41.59375 -1.5 51.40625 13.09375 51.40625 33.90625 
z
M 40.203125 35.703125 
C 40.203125 21.703125 39.5 15.09375 37.5 10.703125 
C 35.203125 5.796875 31.59375 2.796875 27.796875 2.796875 
C 24.5 2.796875 21.296875 5 18.90625 9 
C 16.09375 13.703125 15.296875 20 15.296875 36.296875 
C 15.296875 47.90625 16 53.796875 18 58.09375 
C 20.296875 63.203125 23.90625 66.09375 27.703125 66.09375 
C 31 66.09375 34.203125 63.90625 36.59375 59.90625 
C 39.296875 55.296875 40.203125 49.40625 40.203125 35.703125 
z
" id="TeXGyreScholaMath-Regular-48"/>
       </defs>
       <use xlink:href="#TeXGyreScholaMath-Regular-49"/>
       <use x="55.599991" xlink:href="#TeXGyreScholaMath-Regular-48"/>
       <use x="111.199982" xlink:href="#TeXGyreScholaMath-Regular-48"/>
      </g>
     </g>
    </g>
    <g id="xtick_2">
     <g id="line2d_2">
      <g>
       <use style="stroke:#000000;stroke-width:0.8;" x="358.935502" xlink:href="#m44767d9cce" y="510.5376"/>
      </g>
     </g>
     <g id="text_2">
      <!-- 200 -->
      <g transform="translate(351.523849 590.052945)rotate(-60)scale(0.4 -0.4)">
       <defs>
        <path d="M 50.5 21.59375 
L 46.09375 21.59375 
L 45.09375 16.5 
C 43.796875 10.09375 43 9.40625 36.796875 9.40625 
L 14.40625 9.40625 
C 21.296875 16.59375 23.59375 18.703125 30 23.703125 
C 39 30.703125 43.09375 34.203125 45.296875 37.203125 
C 48.5 41.5 50.09375 46.09375 50.09375 50.90625 
C 50.09375 62.203125 40.59375 70.40625 27.59375 70.40625 
C 14.90625 70.40625 5.09375 62.203125 5.09375 51.59375 
C 5.09375 45.296875 8.296875 41 13.09375 41 
C 16.796875 41 19.296875 43.5 19.296875 47.09375 
C 19.296875 49.59375 17.90625 51.90625 15.703125 52.796875 
C 12 54.40625 11.796875 54.5 11.796875 55.796875 
C 11.796875 60.90625 18.09375 66.09375 25.59375 66.09375 
C 33.796875 66.09375 38.796875 61 38.796875 52.59375 
C 38.796875 45.203125 35.296875 38.5 27 29.703125 
L 13.296875 15.09375 
C 9.703125 10.90625 7.90625 8.59375 3.5 2.796875 
L 3.5 0 
L 48.59375 0 
z
" id="TeXGyreScholaMath-Regular-50"/>
       </defs>
       <use xlink:href="#TeXGyreScholaMath-Regular-50"/>
       <use x="55.599991" xlink:href="#TeXGyreScholaMath-Regular-48"/>
       <use x="111.199982" xlink:href="#TeXGyreScholaMath-Regular-48"/>
      </g>
     </g>
    </g>
    <g id="xtick_3">
     <g id="line2d_3">
      <g>
       <use style="stroke:#000000;stroke-width:0.8;" x="411.905455" xlink:href="#m44767d9cce" y="510.5376"/>
      </g>
     </g>
     <g id="text_3">
      <!-- 300 -->
      <g transform="translate(404.493801 590.052945)rotate(-60)scale(0.4 -0.4)">
       <defs>
        <path d="M 49.796875 18.796875 
C 49.796875 28.203125 44.90625 33.90625 34.59375 36.796875 
C 43 39.796875 47.90625 45 47.90625 53.203125 
C 47.90625 63.59375 39.90625 70.40625 27.5 70.40625 
C 15.796875 70.40625 6.90625 63.5 6.90625 54.40625 
C 6.90625 50.296875 9.703125 47.40625 13.5 47.40625 
C 17 47.40625 19.40625 49.796875 19.40625 53.40625 
C 19.40625 55.5 18.59375 56.90625 16.296875 58.5 
C 15.296875 59.203125 15 59.703125 15 60.296875 
C 15 63.09375 20.90625 66.09375 26.5 66.09375 
C 33.703125 66.09375 37.5 61.59375 37.5 53.09375 
C 37.5 43.796875 33.703125 38.90625 26.5 38.90625 
C 25.09375 38.90625 22 39.203125 20.296875 39.203125 
C 18.203125 39.203125 17.09375 38.296875 17.09375 36.5 
C 17.09375 34.796875 18.203125 34 20.203125 34 
C 26.09375 34 26.5 34.203125 27.296875 34.203125 
C 34.703125 34.203125 38.703125 28.90625 38.703125 19 
C 38.703125 8.703125 33.59375 2.796875 24.703125 2.796875 
C 18.40625 2.796875 11.59375 6.203125 11.59375 9.296875 
C 11.59375 10.203125 11.796875 10.296875 13.796875 11.5 
C 16.59375 13.09375 17.703125 14.90625 17.703125 17.40625 
C 17.703125 21 15 23.703125 11.296875 23.703125 
C 7.09375 23.703125 4.203125 20.09375 4.203125 14.90625 
C 4.203125 5.203125 13.09375 -1.5 25.90625 -1.5 
C 40.296875 -1.5 49.796875 6.5 49.796875 18.796875 
z
" id="TeXGyreScholaMath-Regular-51"/>
       </defs>
       <use xlink:href="#TeXGyreScholaMath-Regular-51"/>
       <use x="55.599991" xlink:href="#TeXGyreScholaMath-Regular-48"/>
       <use x="111.199982" xlink:href="#TeXGyreScholaMath-Regular-48"/>
      </g>
     </g>
    </g>
    <g id="xtick_4">
     <g id="line2d_4">
      <g>
       <use style="stroke:#000000;stroke-width:0.8;" x="464.875407" xlink:href="#m44767d9cce" y="510.5376"/>
      </g>
     </g>
     <g id="text_4">
      <!-- 400 -->
      <g transform="translate(457.463754 590.052945)rotate(-60)scale(0.4 -0.4)">
       <defs>
        <path d="M 52.703125 17.5 
L 52.703125 23.09375 
L 40.59375 23.09375 
L 40.59375 50.40625 
C 40.59375 62.90625 40.59375 62.90625 41.09375 70.40625 
L 36.796875 70.40625 
L 2.796875 23.09375 
L 2.796875 17.5 
L 30.90625 17.5 
L 30.90625 9.40625 
C 30.90625 5.203125 31 4.703125 22.90625 4.703125 
L 20.796875 4.703125 
L 20.796875 0 
L 50 0 
L 50 4.703125 
L 48.59375 4.703125 
C 40.5 4.703125 40.59375 5.203125 40.59375 9.40625 
L 40.59375 17.5 
z
M 30.90625 23.09375 
L 8.90625 23.09375 
L 30.90625 53.40625 
z
" id="TeXGyreScholaMath-Regular-52"/>
       </defs>
       <use xlink:href="#TeXGyreScholaMath-Regular-52"/>
       <use x="55.599991" xlink:href="#TeXGyreScholaMath-Regular-48"/>
       <use x="111.199982" xlink:href="#TeXGyreScholaMath-Regular-48"/>
      </g>
     </g>
    </g>
    <g id="xtick_5">
     <g id="line2d_5">
      <g>
       <use style="stroke:#000000;stroke-width:0.8;" x="517.845359" xlink:href="#m44767d9cce" y="510.5376"/>
      </g>
     </g>
     <g id="text_5">
      <!-- 500 -->
      <g transform="translate(510.433706 590.052945)rotate(-60)scale(0.4 -0.4)">
       <defs>
        <path d="M 50.203125 22.40625 
C 50.203125 36 41.09375 45.09375 27.59375 45.09375 
C 23.40625 45.09375 20.203125 44.40625 14.703125 42.09375 
L 16.40625 59.09375 
C 21.796875 57.796875 24.59375 57.40625 28.5 57.40625 
C 37 57.40625 43.203125 60.40625 46.5 65.90625 
C 47.59375 67.796875 48 68.703125 48 69.5 
C 48 70.09375 47.703125 70.40625 47.203125 70.40625 
C 46.90625 70.40625 46.40625 70.296875 45.90625 70 
C 41 67.90625 38.296875 67.40625 32.59375 67.40625 
C 26.203125 67.40625 22.5 67.90625 12 70.40625 
C 11.59375 62 10.703125 51.296875 9.296875 38.90625 
C 7.203125 36.703125 6.5 35.40625 6.5 33.796875 
C 6.5 31.796875 7.796875 30.40625 9.703125 30.40625 
C 12.203125 30.40625 13.796875 32.5 14.203125 36.5 
C 17.703125 39 21 40.09375 25 40.09375 
C 33.90625 40.09375 39.296875 33.203125 39.296875 21.796875 
C 39.296875 9.90625 35.09375 2.796875 24.40625 2.796875 
C 18.40625 2.796875 12.203125 5.90625 12.203125 9 
C 12.203125 9.703125 12.796875 10.5 14 11.203125 
C 17.09375 13.09375 18 14.40625 18 17.09375 
C 18 20.59375 15.296875 23.296875 11.703125 23.296875 
C 7.703125 23.296875 4.5 19.59375 4.5 14.90625 
C 4.5 6 12.296875 -1.5 24.59375 -1.5 
C 40.296875 -1.5 50.203125 7.703125 50.203125 22.40625 
z
" id="TeXGyreScholaMath-Regular-53"/>
       </defs>
       <use xlink:href="#TeXGyreScholaMath-Regular-53"/>
       <use x="55.599991" xlink:href="#TeXGyreScholaMath-Regular-48"/>
       <use x="111.199982" xlink:href="#TeXGyreScholaMath-Regular-48"/>
      </g>
     </g>
    </g>
    <g id="xtick_6">
     <g id="line2d_6">
      <g>
       <use style="stroke:#000000;stroke-width:0.8;" x="570.815311" xlink:href="#m44767d9cce" y="510.5376"/>
      </g>
     </g>
     <g id="text_6">
      <!-- 600 -->
      <g transform="translate(563.403658 590.052945)rotate(-60)scale(0.4 -0.4)">
       <defs>
        <path d="M 51.59375 22.40625 
C 51.59375 34.203125 43.09375 43 31.796875 43 
C 25 43 20 40.296875 15.296875 34 
C 16.296875 46.5 16.796875 49.703125 19 54.90625 
C 21.90625 62 27.09375 66.09375 33.5 66.09375 
C 37 66.09375 39.09375 65 39.09375 63.203125 
C 39.09375 62.796875 39 62.5 38.59375 61.796875 
C 37.59375 59.90625 37.09375 58.5 37.09375 57.09375 
C 37.09375 53.703125 39.703125 51.203125 43.203125 51.203125 
C 47 51.203125 49.796875 54.203125 49.796875 58.40625 
C 49.796875 65.296875 42.796875 70.40625 33.40625 70.40625 
C 14.703125 70.40625 4.203125 51.296875 4.203125 30.796875 
C 4.203125 11.296875 13.796875 -1.5 28.59375 -1.5 
C 41.90625 -1.5 51.59375 9.5 51.59375 22.40625 
z
M 40.703125 21.703125 
C 40.703125 10.203125 36.09375 2.796875 28.796875 2.796875 
C 21.703125 2.796875 16 10.40625 16 20.296875 
C 16 30.59375 21 36.90625 29.09375 36.90625 
C 36.296875 36.90625 40.703125 31.203125 40.703125 21.703125 
z
" id="TeXGyreScholaMath-Regular-54"/>
       </defs>
       <use xlink:href="#TeXGyreScholaMath-Regular-54"/>
       <use x="55.599991" xlink:href="#TeXGyreScholaMath-Regular-48"/>
       <use x="111.199982" xlink:href="#TeXGyreScholaMath-Regular-48"/>
      </g>
     </g>
    </g>
    <g id="xtick_7">
     <g id="line2d_7">
      <g>
       <use style="stroke:#000000;stroke-width:0.8;" x="623.785263" xlink:href="#m44767d9cce" y="510.5376"/>
      </g>
     </g>
     <g id="text_7">
      <!-- 700 -->
      <g transform="translate(616.37361 590.052945)rotate(-60)scale(0.4 -0.4)">
       <defs>
        <path d="M 50.796875 67.09375 
L 50.796875 70 
C 44.59375 69.5 41.296875 69.40625 35.203125 69.40625 
C 26.703125 69.40625 19.90625 69.703125 9 70.40625 
L 5.90625 46.203125 
L 10.296875 45.5 
L 12.09375 53.40625 
C 13.59375 60 14.296875 61 17.203125 61 
C 23.203125 61 31.90625 60.296875 36.5 60.296875 
L 42.703125 60.40625 
L 35.90625 46.703125 
C 28.5 31.703125 27.5 30.09375 25.09375 24 
C 22.09375 16.5 20.40625 10.203125 20.40625 6 
C 20.40625 1.5 22.796875 -1.40625 26.703125 -1.40625 
C 31.59375 -1.40625 33.296875 1.90625 33.296875 10.5 
C 33.296875 11.796875 33.203125 13.09375 33.203125 14.296875 
C 33.203125 26.296875 35.703125 34.09375 45.296875 55.296875 
L 49.796875 64.703125 
C 49.90625 64.90625 50.203125 65.796875 50.796875 67.09375 
z
" id="TeXGyreScholaMath-Regular-55"/>
       </defs>
       <use xlink:href="#TeXGyreScholaMath-Regular-55"/>
       <use x="55.599991" xlink:href="#TeXGyreScholaMath-Regular-48"/>
       <use x="111.199982" xlink:href="#TeXGyreScholaMath-Regular-48"/>
      </g>
     </g>
    </g>
    <g id="xtick_8">
     <g id="line2d_8">
      <g>
       <use style="stroke:#000000;stroke-width:0.8;" x="676.755215" xlink:href="#m44767d9cce" y="510.5376"/>
      </g>
     </g>
     <g id="text_8">
      <!-- 800 -->
      <g transform="translate(669.343562 590.052945)rotate(-60)scale(0.4 -0.4)">
       <defs>
        <path d="M 51.296875 20.09375 
C 51.296875 28.796875 47.09375 34.59375 37.40625 39 
C 44.90625 43.09375 48.40625 48 48.40625 54.5 
C 48.40625 63.703125 40 70.40625 28.5 70.40625 
C 16.296875 70.40625 7.40625 62.296875 7.40625 51.296875 
C 7.40625 44 10.59375 38.703125 18.703125 34.40625 
C 8.40625 30.40625 4.09375 25.09375 4.09375 16.796875 
C 4.09375 5.90625 12.796875 -1.5 26.703125 -1.5 
C 42.09375 -1.5 51.296875 7.5 51.296875 20.09375 
z
M 41 53.90625 
C 41 48.703125 39 45.296875 33.296875 40.5 
L 26.703125 42.90625 
C 18.59375 45.796875 15.09375 49.703125 15.09375 55.5 
C 15.09375 61.796875 20.296875 66.09375 28.203125 66.09375 
C 35.90625 66.09375 41 61.203125 41 53.90625 
z
M 43.296875 15.90625 
C 43.296875 7.90625 37 2.796875 27.203125 2.796875 
C 17.90625 2.796875 12.40625 8 12.40625 16.796875 
C 12.40625 24.296875 15.5 28.796875 23.296875 32.40625 
L 32.5 29.09375 
C 40.09375 26.40625 43.296875 22.5 43.296875 15.90625 
z
" id="TeXGyreScholaMath-Regular-56"/>
       </defs>
       <use xlink:href="#TeXGyreScholaMath-Regular-56"/>
       <use x="55.599991" xlink:href="#TeXGyreScholaMath-Regular-48"/>
       <use x="111.199982" xlink:href="#TeXGyreScholaMath-Regular-48"/>
      </g>
     </g>
    </g>
    <g id="xtick_9">
     <g id="line2d_9">
      <g>
       <use style="stroke:#000000;stroke-width:0.8;" x="729.725167" xlink:href="#m44767d9cce" y="510.5376"/>
      </g>
     </g>
     <g id="text_9">
      <!-- 900 -->
      <g transform="translate(722.313514 590.052945)rotate(-60)scale(0.4 -0.4)">
       <defs>
        <path d="M 51.296875 37.40625 
C 51.296875 57.5 41.703125 70.40625 26.796875 70.40625 
C 14 70.40625 3.90625 59.796875 3.90625 46.296875 
C 3.90625 34.40625 12.296875 25.59375 23.703125 25.59375 
C 30.796875 25.59375 35 27.90625 40.40625 34.703125 
C 39.09375 22.59375 38.59375 19.59375 36.796875 14.5 
C 34.203125 7.09375 28.703125 2.796875 22 2.796875 
C 18.703125 2.796875 16.40625 3.796875 16.40625 5.296875 
C 16.40625 5.703125 16.59375 6.203125 17 7 
C 18.203125 9.40625 18.40625 10 18.40625 11.40625 
C 18.40625 14.703125 15.796875 17.296875 12.5 17.296875 
C 8.703125 17.296875 5.703125 14.09375 5.703125 10.09375 
C 5.703125 3.5 12.703125 -1.5 21.90625 -1.5 
C 40.90625 -1.5 51.296875 16.703125 51.296875 37.40625 
z
M 39.5 47.5 
C 39.5 37 34 31.59375 26.703125 31.59375 
C 19.09375 31.59375 14.796875 37.5 14.796875 48.09375 
C 14.796875 59.09375 19.59375 66.09375 27.203125 66.09375 
C 34.59375 66.09375 39.5 58.703125 39.5 47.5 
z
" id="TeXGyreScholaMath-Regular-57"/>
       </defs>
       <use xlink:href="#TeXGyreScholaMath-Regular-57"/>
       <use x="55.599991" xlink:href="#TeXGyreScholaMath-Regular-48"/>
       <use x="111.199982" xlink:href="#TeXGyreScholaMath-Regular-48"/>
      </g>
     </g>
    </g>
    <g id="xtick_10">
     <g id="line2d_10">
      <g>
       <use style="stroke:#000000;stroke-width:0.8;" x="782.69512" xlink:href="#m44767d9cce" y="510.5376"/>
      </g>
     </g>
     <g id="text_10">
      <!-- 1000 -->
      <g transform="translate(769.724091 609.311185)rotate(-60)scale(0.4 -0.4)">
       <use xlink:href="#TeXGyreScholaMath-Regular-49"/>
       <use x="55.599991" xlink:href="#TeXGyreScholaMath-Regular-48"/>
       <use x="111.199982" xlink:href="#TeXGyreScholaMath-Regular-48"/>
       <use x="166.799973" xlink:href="#TeXGyreScholaMath-Regular-48"/>
      </g>
     </g>
    </g>
    <g id="xtick_11">
     <g id="line2d_11">
      <g>
       <use style="stroke:#000000;stroke-width:0.8;" x="835.665072" xlink:href="#m44767d9cce" y="510.5376"/>
      </g>
     </g>
     <g id="text_11">
      <!-- 1100 -->
      <g transform="translate(822.694044 609.311185)rotate(-60)scale(0.4 -0.4)">
       <use xlink:href="#TeXGyreScholaMath-Regular-49"/>
       <use x="55.599991" xlink:href="#TeXGyreScholaMath-Regular-49"/>
       <use x="111.199982" xlink:href="#TeXGyreScholaMath-Regular-48"/>
       <use x="166.799973" xlink:href="#TeXGyreScholaMath-Regular-48"/>
      </g>
     </g>
    </g>
    <g id="xtick_12">
     <g id="line2d_12">
      <g>
       <use style="stroke:#000000;stroke-width:0.8;" x="888.635024" xlink:href="#m44767d9cce" y="510.5376"/>
      </g>
     </g>
     <g id="text_12">
      <!-- 1200 -->
      <g transform="translate(875.663996 609.311185)rotate(-60)scale(0.4 -0.4)">
       <use xlink:href="#TeXGyreScholaMath-Regular-49"/>
       <use x="55.599991" xlink:href="#TeXGyreScholaMath-Regular-50"/>
       <use x="111.199982" xlink:href="#TeXGyreScholaMath-Regular-48"/>
       <use x="166.799973" xlink:href="#TeXGyreScholaMath-Regular-48"/>
      </g>
     </g>
    </g>
    <g id="xtick_13">
     <g id="line2d_13">
      <g>
       <use style="stroke:#000000;stroke-width:0.8;" x="941.604976" xlink:href="#m44767d9cce" y="510.5376"/>
      </g>
     </g>
     <g id="text_13">
      <!-- 1300 -->
      <g transform="translate(928.633948 609.311185)rotate(-60)scale(0.4 -0.4)">
       <use xlink:href="#TeXGyreScholaMath-Regular-49"/>
       <use x="55.599991" xlink:href="#TeXGyreScholaMath-Regular-51"/>
       <use x="111.199982" xlink:href="#TeXGyreScholaMath-Regular-48"/>
       <use x="166.799973" xlink:href="#TeXGyreScholaMath-Regular-48"/>
      </g>
     </g>
    </g>
    <g id="xtick_14">
     <g id="line2d_14">
      <g>
       <use style="stroke:#000000;stroke-width:0.8;" x="994.574928" xlink:href="#m44767d9cce" y="510.5376"/>
      </g>
     </g>
     <g id="text_14">
      <!-- 1400 -->
      <g transform="translate(981.6039 609.311185)rotate(-60)scale(0.4 -0.4)">
       <use xlink:href="#TeXGyreScholaMath-Regular-49"/>
       <use x="55.599991" xlink:href="#TeXGyreScholaMath-Regular-52"/>
       <use x="111.199982" xlink:href="#TeXGyreScholaMath-Regular-48"/>
       <use x="166.799973" xlink:href="#TeXGyreScholaMath-Regular-48"/>
      </g>
     </g>
    </g>
    <g id="xtick_15">
     <g id="line2d_15">
      <g>
       <use style="stroke:#000000;stroke-width:0.8;" x="1047.54488" xlink:href="#m44767d9cce" y="510.5376"/>
      </g>
     </g>
     <g id="text_15">
      <!-- 1500 -->
      <g transform="translate(1034.573852 609.311185)rotate(-60)scale(0.4 -0.4)">
       <use xlink:href="#TeXGyreScholaMath-Regular-49"/>
       <use x="55.599991" xlink:href="#TeXGyreScholaMath-Regular-53"/>
       <use x="111.199982" xlink:href="#TeXGyreScholaMath-Regular-48"/>
       <use x="166.799973" xlink:href="#TeXGyreScholaMath-Regular-48"/>
      </g>
     </g>
    </g>
    <g id="xtick_16">
     <g id="line2d_16">
      <g>
       <use style="stroke:#000000;stroke-width:0.8;" x="1100.514833" xlink:href="#m44767d9cce" y="510.5376"/>
      </g>
     </g>
     <g id="text_16">
      <!-- 1600 -->
      <g transform="translate(1087.543804 609.311185)rotate(-60)scale(0.4 -0.4)">
       <use xlink:href="#TeXGyreScholaMath-Regular-49"/>
       <use x="55.599991" xlink:href="#TeXGyreScholaMath-Regular-54"/>
       <use x="111.199982" xlink:href="#TeXGyreScholaMath-Regular-48"/>
       <use x="166.799973" xlink:href="#TeXGyreScholaMath-Regular-48"/>
      </g>
     </g>
    </g>
    <g id="xtick_17">
     <g id="line2d_17">
      <g>
       <use style="stroke:#000000;stroke-width:0.8;" x="1153.484785" xlink:href="#m44767d9cce" y="510.5376"/>
      </g>
     </g>
     <g id="text_17">
      <!-- 1700 -->
      <g transform="translate(1140.513757 609.311185)rotate(-60)scale(0.4 -0.4)">
       <use xlink:href="#TeXGyreScholaMath-Regular-49"/>
       <use x="55.599991" xlink:href="#TeXGyreScholaMath-Regular-55"/>
       <use x="111.199982" xlink:href="#TeXGyreScholaMath-Regular-48"/>
       <use x="166.799973" xlink:href="#TeXGyreScholaMath-Regular-48"/>
      </g>
     </g>
    </g>
    <g id="xtick_18">
     <g id="line2d_18">
      <g>
       <use style="stroke:#000000;stroke-width:0.8;" x="1206.454737" xlink:href="#m44767d9cce" y="510.5376"/>
      </g>
     </g>
     <g id="text_18">
      <!-- 1800 -->
      <g transform="translate(1193.483709 609.311185)rotate(-60)scale(0.4 -0.4)">
       <use xlink:href="#TeXGyreScholaMath-Regular-49"/>
       <use x="55.599991" xlink:href="#TeXGyreScholaMath-Regular-56"/>
       <use x="111.199982" xlink:href="#TeXGyreScholaMath-Regular-48"/>
       <use x="166.799973" xlink:href="#TeXGyreScholaMath-Regular-48"/>
      </g>
     </g>
    </g>
    <g id="xtick_19">
     <g id="line2d_19">
      <g>
       <use style="stroke:#000000;stroke-width:0.8;" x="1259.424689" xlink:href="#m44767d9cce" y="510.5376"/>
      </g>
     </g>
     <g id="text_19">
      <!-- 1900 -->
      <g transform="translate(1246.453661 609.311185)rotate(-60)scale(0.4 -0.4)">
       <use xlink:href="#TeXGyreScholaMath-Regular-49"/>
       <use x="55.599991" xlink:href="#TeXGyreScholaMath-Regular-57"/>
       <use x="111.199982" xlink:href="#TeXGyreScholaMath-Regular-48"/>
       <use x="166.799973" xlink:href="#TeXGyreScholaMath-Regular-48"/>
      </g>
     </g>
    </g>
    <g id="xtick_20">
     <g id="line2d_20">
      <g>
       <use style="stroke:#000000;stroke-width:0.8;" x="1312.394641" xlink:href="#m44767d9cce" y="510.5376"/>
      </g>
     </g>
     <g id="text_20">
      <!-- 2000 -->
      <g transform="translate(1299.423613 609.311185)rotate(-60)scale(0.4 -0.4)">
       <use xlink:href="#TeXGyreScholaMath-Regular-50"/>
       <use x="55.599991" xlink:href="#TeXGyreScholaMath-Regular-48"/>
       <use x="111.199982" xlink:href="#TeXGyreScholaMath-Regular-48"/>
       <use x="166.799973" xlink:href="#TeXGyreScholaMath-Regular-48"/>
      </g>
     </g>
    </g>
    <g id="xtick_21">
     <g id="line2d_21">
      <g>
       <use style="stroke:#000000;stroke-width:0.8;" x="1365.364593" xlink:href="#m44767d9cce" y="510.5376"/>
      </g>
     </g>
     <g id="text_21">
      <!-- 2100 -->
      <g transform="translate(1352.393565 609.311185)rotate(-60)scale(0.4 -0.4)">
       <use xlink:href="#TeXGyreScholaMath-Regular-50"/>
       <use x="55.599991" xlink:href="#TeXGyreScholaMath-Regular-49"/>
       <use x="111.199982" xlink:href="#TeXGyreScholaMath-Regular-48"/>
       <use x="166.799973" xlink:href="#TeXGyreScholaMath-Regular-48"/>
      </g>
     </g>
    </g>
    <g id="xtick_22">
     <g id="line2d_22">
      <g>
       <use style="stroke:#000000;stroke-width:0.8;" x="1418.334545" xlink:href="#m44767d9cce" y="510.5376"/>
      </g>
     </g>
     <g id="text_22">
      <!-- 2200 -->
      <g transform="translate(1405.363517 609.311185)rotate(-60)scale(0.4 -0.4)">
       <use xlink:href="#TeXGyreScholaMath-Regular-50"/>
       <use x="55.599991" xlink:href="#TeXGyreScholaMath-Regular-50"/>
       <use x="111.199982" xlink:href="#TeXGyreScholaMath-Regular-48"/>
       <use x="166.799973" xlink:href="#TeXGyreScholaMath-Regular-48"/>
      </g>
     </g>
    </g>
    <g id="xtick_23">
     <g id="line2d_23">
      <g>
       <use style="stroke:#000000;stroke-width:0.8;" x="1471.304498" xlink:href="#m44767d9cce" y="510.5376"/>
      </g>
     </g>
     <g id="text_23">
      <!-- 2300 -->
      <g transform="translate(1458.333469 609.311185)rotate(-60)scale(0.4 -0.4)">
       <use xlink:href="#TeXGyreScholaMath-Regular-50"/>
       <use x="55.599991" xlink:href="#TeXGyreScholaMath-Regular-51"/>
       <use x="111.199982" xlink:href="#TeXGyreScholaMath-Regular-48"/>
       <use x="166.799973" xlink:href="#TeXGyreScholaMath-Regular-48"/>
      </g>
     </g>
    </g>
    <g id="xtick_24">
     <g id="line2d_24">
      <g>
       <use style="stroke:#000000;stroke-width:0.8;" x="1524.27445" xlink:href="#m44767d9cce" y="510.5376"/>
      </g>
     </g>
     <g id="text_24">
      <!-- 2400 -->
      <g transform="translate(1511.303422 609.311185)rotate(-60)scale(0.4 -0.4)">
       <use xlink:href="#TeXGyreScholaMath-Regular-50"/>
       <use x="55.599991" xlink:href="#TeXGyreScholaMath-Regular-52"/>
       <use x="111.199982" xlink:href="#TeXGyreScholaMath-Regular-48"/>
       <use x="166.799973" xlink:href="#TeXGyreScholaMath-Regular-48"/>
      </g>
     </g>
    </g>
    <g id="text_25">
     <!-- Frequency (Hz) -->
     <g transform="translate(766.16375 646.67681)scale(0.4 -0.4)">
      <defs>
       <path d="M 63.796875 46.59375 
L 63.796875 72.203125 
L 2.90625 72.203125 
L 2.90625 67.5 
L 4.703125 67.5 
C 12.796875 67.5 13.703125 67 13.703125 62.796875 
L 13.703125 9.40625 
C 13.703125 5.203125 12.796875 4.703125 4.703125 4.703125 
L 2.90625 4.703125 
L 2.90625 0 
L 37.203125 0 
L 37.203125 4.703125 
L 33.90625 4.703125 
C 25.796875 4.703125 24.90625 5.203125 24.90625 9.40625 
L 24.90625 35 
L 26.90625 35 
C 39.296875 35 41 30.09375 41.296875 20.59375 
L 46 20.59375 
L 46 53.40625 
L 41.296875 53.40625 
C 40.796875 43.59375 36.796875 39.703125 27.296875 39.703125 
L 24.90625 39.703125 
L 24.90625 62.5 
C 24.90625 66.796875 25.796875 67.5 31.203125 67.5 
L 35.796875 67.5 
C 52.296875 67.5 56.59375 63.703125 59.40625 46.59375 
z
" id="TeXGyreScholaMath-Regular-70"/>
       <path d="M 43.5 40.09375 
C 43.5 44.90625 40.09375 48.09375 34.796875 48.09375 
C 28.5 48.09375 23 43 19.796875 34.203125 
L 19.796875 46.59375 
L 2.09375 45.5 
L 2.09375 41.203125 
L 6.203125 41.203125 
C 9.90625 41.203125 10.5 40.5 10.5 36.203125 
L 10.5 8.296875 
C 10.5 4.296875 10.40625 3.59375 3.90625 3.59375 
L 2.5 3.59375 
L 2.5 0 
L 29.203125 0 
L 29.203125 3.59375 
L 27.296875 3.59375 
C 20.90625 3.59375 19.796875 4.296875 19.796875 8.296875 
L 19.796875 13.296875 
C 19.796875 20.796875 21.203125 28.40625 23.703125 34.09375 
C 26.09375 39.703125 29.5 42.796875 33.703125 43.296875 
C 32.296875 41.703125 31.90625 40.703125 31.90625 38.796875 
C 31.90625 35.59375 34.203125 33.296875 37.40625 33.296875 
C 41 33.296875 43.5 36 43.5 40.09375 
z
" id="TeXGyreScholaMath-Regular-114"/>
       <path d="M 46.5 12.703125 
L 43 14.59375 
C 38.90625 6.90625 34.703125 3.90625 28 3.90625 
C 19.703125 3.90625 14.09375 9.90625 14.09375 22.5 
L 46.5 22.5 
C 46.5 37.5 38.203125 48.09375 25.90625 48.09375 
C 13.09375 48.09375 3.5 37 3.5 22 
C 3.5 8 12.59375 -1.5 26.09375 -1.5 
C 35.59375 -1.5 42.40625 3.203125 46.5 12.703125 
z
M 35.796875 30.5 
C 35.796875 27.59375 34.90625 26.796875 31.703125 26.796875 
L 14.203125 26.796875 
C 14.203125 37.5 19.59375 43.796875 25.703125 43.796875 
C 31.796875 43.796875 35.796875 38.5 35.796875 30.5 
z
" id="TeXGyreScholaMath-Regular-101"/>
       <path d="M 54.796875 -20.203125 
L 54.796875 -16.59375 
L 53.40625 -16.59375 
C 47 -16.59375 46.90625 -15.90625 46.90625 -11.90625 
L 46.90625 30.90625 
L 47 38.09375 
C 47.203125 40 47.5 41.40625 48.59375 46.59375 
L 44.90625 46.59375 
L 40.203125 39.796875 
C 36.203125 45.40625 31.296875 48.09375 25 48.09375 
C 12.796875 48.09375 3.59375 37 3.59375 22.203125 
C 3.59375 8.5 12.203125 -1.5 23.90625 -1.5 
C 30.09375 -1.5 33.5 0.296875 37.5 5.796875 
L 37.5 -11.90625 
C 37.5 -15.90625 36.59375 -16.59375 30.09375 -16.59375 
L 28.796875 -16.59375 
L 28.796875 -20.203125 
z
M 37.5 24.40625 
C 37.5 10.703125 33.59375 3.90625 25.796875 3.90625 
C 18.40625 3.90625 14.09375 10.796875 14.09375 22.796875 
C 14.09375 36.796875 18 43.796875 25.90625 43.796875 
C 29.90625 43.796875 33.5 41.203125 35.40625 37 
C 36.90625 33.703125 37.5 30.09375 37.5 24.40625 
z
" id="TeXGyreScholaMath-Regular-113"/>
       <path d="M 59.40625 0 
L 59.40625 4.296875 
L 56.90625 4.296875 
C 51.40625 4.296875 50.59375 5.203125 50.59375 11.59375 
L 50.59375 46.59375 
L 31.796875 45.5 
L 31.796875 41.203125 
L 36.90625 41.203125 
C 40.59375 41.203125 41.203125 40.5 41.203125 36.203125 
L 41.203125 23.90625 
C 41.203125 18.203125 40.59375 14.90625 39.09375 11.59375 
C 37 7.203125 33 4.59375 28.09375 4.59375 
C 25 4.59375 22.40625 5.703125 21.09375 7.703125 
C 19.796875 9.59375 19.59375 10.59375 19.59375 16.09375 
L 19.59375 46.59375 
L 2.09375 45.5 
L 2.09375 41.203125 
L 5.90625 41.203125 
C 9.59375 41.203125 10.203125 40.5 10.203125 36.203125 
L 10.203125 14.59375 
C 10.203125 9.5 10.59375 7.203125 12.09375 4.90625 
C 14.796875 0.796875 19.59375 -1.5 25.59375 -1.5 
C 32.203125 -1.5 36.796875 1.203125 41.203125 7.59375 
L 41.203125 -0.703125 
z
" id="TeXGyreScholaMath-Regular-117"/>
       <path d="M 59.296875 0 
L 59.296875 3.59375 
L 57.90625 3.59375 
C 51.5 3.59375 51.40625 4.296875 51.40625 8.296875 
L 51.40625 28 
C 51.40625 35.203125 51.09375 37 49.296875 40.40625 
C 46.796875 45.203125 41.703125 48.09375 35.796875 48.09375 
C 29.40625 48.09375 24.40625 45.09375 20 38.5 
L 20 46.59375 
L 2.703125 45.5 
L 2.703125 41.203125 
L 6.296875 41.203125 
C 10 41.203125 10.59375 40.5 10.59375 36.203125 
L 10.59375 8.296875 
C 10.59375 4.296875 10.5 3.59375 4.09375 3.59375 
L 2.703125 3.59375 
L 2.703125 0 
L 28 0 
L 28 3.59375 
L 26.59375 3.59375 
C 20.09375 3.59375 20 4.296875 20 8.296875 
L 20 22.703125 
C 20 27.59375 20.703125 32.09375 21.796875 34.40625 
C 23.90625 38.90625 28.40625 42 32.703125 42 
C 35.296875 42 38.296875 40.5 39.796875 38.5 
C 41.296875 36.40625 42 33.296875 42 28.5 
L 42 8.296875 
C 42 4.296875 41.90625 3.59375 35.40625 3.59375 
L 34 3.59375 
L 34 0 
z
" id="TeXGyreScholaMath-Regular-110"/>
       <path d="M 42.59375 13.203125 
L 38.703125 14.703125 
C 35.5 7.5 32.09375 4.59375 26.90625 4.59375 
C 18.90625 4.59375 13.90625 11.90625 13.90625 23.59375 
C 13.90625 35.703125 18.796875 43.796875 26.203125 43.796875 
C 29.203125 43.796875 31.796875 42.40625 31.796875 40.796875 
C 31.796875 40.5 31.59375 40.203125 31.203125 39.59375 
C 29.59375 37.703125 29.203125 36.703125 29.203125 35 
C 29.203125 31.703125 31.703125 29.40625 35.203125 29.40625 
C 38.703125 29.40625 41.296875 32.203125 41.296875 36.203125 
C 41.296875 42.90625 34.59375 48.09375 25.703125 48.09375 
C 12.703125 48.09375 3.40625 37.40625 3.40625 22.5 
C 3.40625 8.296875 11.90625 -1.5 24.296875 -1.5 
C 33.203125 -1.5 38.296875 2.59375 42.59375 13.203125 
z
" id="TeXGyreScholaMath-Regular-99"/>
       <path d="M 53.09375 43 
L 53.09375 46.59375 
L 33.09375 46.59375 
L 33.09375 43 
L 34.703125 43 
C 38.5 43 40.09375 41.90625 40.09375 39.296875 
C 40.09375 38.296875 39.796875 37 39.09375 35.296875 
L 30 12.703125 
L 19 38.40625 
C 18.59375 39.296875 18.40625 40 18.40625 40.5 
C 18.40625 42.296875 19.59375 43 23 43 
L 25.09375 43 
L 25.09375 46.59375 
L 1.296875 46.59375 
L 1.296875 43 
L 2.59375 43 
C 5.796875 43 7.40625 41.59375 9.203125 37.59375 
L 25.5 0.703125 
L 23.796875 -2.796875 
C 20.09375 -10.40625 15.5 -15.703125 12.296875 -15.703125 
C 11.40625 -15.703125 10.703125 -15.296875 10.703125 -14.703125 
C 10.703125 -14 11.40625 -12.296875 11.40625 -11.203125 
C 11.40625 -8.59375 9.203125 -6.703125 6.296875 -6.703125 
C 2.796875 -6.703125 0.296875 -9.296875 0.296875 -12.90625 
C 0.296875 -17.296875 4.203125 -20.59375 9.40625 -20.59375 
C 14.703125 -20.59375 19.203125 -18 23.203125 -12.59375 
C 26.296875 -8.40625 28.203125 -4.40625 32.703125 6.703125 
L 44.09375 34.90625 
C 46.59375 41 48.09375 43 51.90625 43 
z
" id="TeXGyreScholaMath-Regular-121"/>
       <path id="TeXGyreScholaMath-Regular-32"/>
       <path d="M 41.296875 -13.703125 
C 30.09375 -6.203125 25.296875 8.703125 25.296875 22.59375 
L 25.296875 29.40625 
C 25.296875 43.296875 30.09375 58.203125 41.296875 65.703125 
L 39.59375 68.296875 
C 26.59375 59.703125 16 45.296875 16 29.40625 
L 16 22.59375 
C 16 6.703125 26.59375 -7.703125 39.59375 -16.296875 
z
" id="TeXGyreScholaMath-Regular-40"/>
       <path d="M 80.40625 0 
L 80.40625 4.703125 
L 78.59375 4.703125 
C 70.5 4.703125 69.59375 5.203125 69.59375 9.40625 
L 69.59375 62.796875 
C 69.59375 67 70.5 67.5 78.59375 67.5 
L 80.40625 67.5 
L 80.40625 72.203125 
L 48 72.203125 
L 48 67.5 
L 49.40625 67.5 
C 57.5 67.5 58.40625 67 58.40625 62.796875 
L 58.40625 40.09375 
L 24.90625 40.09375 
L 24.90625 62.796875 
C 24.90625 67 25.796875 67.5 33.90625 67.5 
L 35.796875 67.5 
L 35.796875 72.203125 
L 2.90625 72.203125 
L 2.90625 67.5 
L 4.703125 67.5 
C 12.796875 67.5 13.703125 67 13.703125 62.796875 
L 13.703125 9.40625 
C 13.703125 5.203125 12.796875 4.703125 4.703125 4.703125 
L 2.90625 4.703125 
L 2.90625 0 
L 35.796875 0 
L 35.796875 4.703125 
L 33.90625 4.703125 
C 25.796875 4.703125 24.90625 5.203125 24.90625 9.40625 
L 24.90625 34.703125 
L 58.40625 34.703125 
L 58.40625 9.40625 
C 58.40625 5.203125 57.5 4.703125 49.40625 4.703125 
L 47.59375 4.703125 
L 47.59375 0 
z
" id="TeXGyreScholaMath-Regular-72"/>
       <path d="M 43.5 17.90625 
L 39.5 17.90625 
C 38.5 8 34.703125 4.296875 25.703125 4.296875 
L 15.5 4.296875 
L 42.796875 43 
L 42.796875 46.59375 
L 6.703125 46.59375 
L 5.796875 29.703125 
L 9.796875 29.703125 
C 10.703125 38.703125 14.296875 42.296875 22.5 42.296875 
L 31.203125 42.296875 
L 3.90625 3.59375 
L 3.90625 0 
L 42.796875 0 
z
" id="TeXGyreScholaMath-Regular-122"/>
       <path d="M 33.296875 22.59375 
L 33.296875 29.40625 
C 33.296875 45.296875 22.703125 59.703125 9.796875 68.296875 
L 8 65.703125 
C 19.296875 58.203125 24 43.296875 24 29.40625 
L 24 22.59375 
C 24 8.703125 19.296875 -6.203125 8 -13.703125 
L 9.796875 -16.296875 
C 22.703125 -7.703125 33.296875 6.703125 33.296875 22.59375 
z
" id="TeXGyreScholaMath-Regular-41"/>
      </defs>
      <use xlink:href="#TeXGyreScholaMath-Regular-70"/>
      <use x="66.699997" xlink:href="#TeXGyreScholaMath-Regular-114"/>
      <use x="111.099991" xlink:href="#TeXGyreScholaMath-Regular-101"/>
      <use x="161.099976" xlink:href="#TeXGyreScholaMath-Regular-113"/>
      <use x="216.699966" xlink:href="#TeXGyreScholaMath-Regular-117"/>
      <use x="277.799957" xlink:href="#TeXGyreScholaMath-Regular-101"/>
      <use x="327.799942" xlink:href="#TeXGyreScholaMath-Regular-110"/>
      <use x="388.899933" xlink:href="#TeXGyreScholaMath-Regular-99"/>
      <use x="433.299927" xlink:href="#TeXGyreScholaMath-Regular-121"/>
      <use x="486.999924" xlink:href="#TeXGyreScholaMath-Regular-32"/>
      <use x="514.799911" xlink:href="#TeXGyreScholaMath-Regular-40"/>
      <use x="564.099899" xlink:href="#TeXGyreScholaMath-Regular-72"/>
      <use x="647.399887" xlink:href="#TeXGyreScholaMath-Regular-122"/>
      <use x="695.499878" xlink:href="#TeXGyreScholaMath-Regular-41"/>
     </g>
    </g>
   </g>
   <g id="matplotlib.axis_2">
    <g id="ytick_1">
     <g id="line2d_25">
      <defs>
       <path d="M 0 0 
L -3.5 0 
" id="m71e3f219be" style="stroke:#000000;stroke-width:0.8;"/>
      </defs>
      <g>
       <use style="stroke:#000000;stroke-width:0.8;" x="223.2" xlink:href="#m71e3f219be" y="423.046674"/>
      </g>
     </g>
     <g id="text_26">
      <!-- $\mathdefault{10^{-2}}$ -->
      <g transform="translate(133 437.787299)scale(0.4 -0.4)">
       <defs>
        <path d="M 70 22.5 
L 70 29.5 
L 8 29.5 
L 8 22.5 
z
" id="TeXGyreScholaMath-Regular-8722"/>
       </defs>
       <use transform="translate(0 0.1)" xlink:href="#TeXGyreScholaMath-Regular-49"/>
       <use transform="translate(55.599991 0.1)" xlink:href="#TeXGyreScholaMath-Regular-48"/>
       <use transform="translate(112.015372 32.715625)scale(0.7)" xlink:href="#TeXGyreScholaMath-Regular-8722"/>
       <use transform="translate(166.615362 32.715625)scale(0.7)" xlink:href="#TeXGyreScholaMath-Regular-50"/>
      </g>
     </g>
    </g>
    <g id="ytick_2">
     <g id="line2d_26">
      <g>
       <use style="stroke:#000000;stroke-width:0.8;" x="223.2" xlink:href="#m71e3f219be" y="192.203297"/>
      </g>
     </g>
     <g id="text_27">
      <!-- $\mathdefault{10^{-1}}$ -->
      <g transform="translate(133 206.943922)scale(0.4 -0.4)">
       <use transform="translate(0 0.1)" xlink:href="#TeXGyreScholaMath-Regular-49"/>
       <use transform="translate(55.599991 0.1)" xlink:href="#TeXGyreScholaMath-Regular-48"/>
       <use transform="translate(112.015372 32.715625)scale(0.7)" xlink:href="#TeXGyreScholaMath-Regular-8722"/>
       <use transform="translate(166.615362 32.715625)scale(0.7)" xlink:href="#TeXGyreScholaMath-Regular-49"/>
      </g>
     </g>
    </g>
    <g id="ytick_3">
     <g id="line2d_27">
      <defs>
       <path d="M 0 0 
L -2 0 
" id="m8087ff9fd9" style="stroke:#000000;stroke-width:0.6;"/>
      </defs>
      <g>
       <use style="stroke:#000000;stroke-width:0.6;" x="223.2" xlink:href="#m8087ff9fd9" y="492.537455"/>
      </g>
     </g>
    </g>
    <g id="ytick_4">
     <g id="line2d_28">
      <g>
       <use style="stroke:#000000;stroke-width:0.6;" x="223.2" xlink:href="#m8087ff9fd9" y="474.258989"/>
      </g>
     </g>
    </g>
    <g id="ytick_5">
     <g id="line2d_29">
      <g>
       <use style="stroke:#000000;stroke-width:0.6;" x="223.2" xlink:href="#m8087ff9fd9" y="458.804766"/>
      </g>
     </g>
    </g>
    <g id="ytick_6">
     <g id="line2d_30">
      <g>
       <use style="stroke:#000000;stroke-width:0.6;" x="223.2" xlink:href="#m8087ff9fd9" y="445.417709"/>
      </g>
     </g>
    </g>
    <g id="ytick_7">
     <g id="line2d_31">
      <g>
       <use style="stroke:#000000;stroke-width:0.6;" x="223.2" xlink:href="#m8087ff9fd9" y="433.609488"/>
      </g>
     </g>
    </g>
    <g id="ytick_8">
     <g id="line2d_32">
      <g>
       <use style="stroke:#000000;stroke-width:0.6;" x="223.2" xlink:href="#m8087ff9fd9" y="353.555893"/>
      </g>
     </g>
    </g>
    <g id="ytick_9">
     <g id="line2d_33">
      <g>
       <use style="stroke:#000000;stroke-width:0.6;" x="223.2" xlink:href="#m8087ff9fd9" y="312.906392"/>
      </g>
     </g>
    </g>
    <g id="ytick_10">
     <g id="line2d_34">
      <g>
       <use style="stroke:#000000;stroke-width:0.6;" x="223.2" xlink:href="#m8087ff9fd9" y="284.065112"/>
      </g>
     </g>
    </g>
    <g id="ytick_11">
     <g id="line2d_35">
      <g>
       <use style="stroke:#000000;stroke-width:0.6;" x="223.2" xlink:href="#m8087ff9fd9" y="261.694078"/>
      </g>
     </g>
    </g>
    <g id="ytick_12">
     <g id="line2d_36">
      <g>
       <use style="stroke:#000000;stroke-width:0.6;" x="223.2" xlink:href="#m8087ff9fd9" y="243.415611"/>
      </g>
     </g>
    </g>
    <g id="ytick_13">
     <g id="line2d_37">
      <g>
       <use style="stroke:#000000;stroke-width:0.6;" x="223.2" xlink:href="#m8087ff9fd9" y="227.961388"/>
      </g>
     </g>
    </g>
    <g id="ytick_14">
     <g id="line2d_38">
      <g>
       <use style="stroke:#000000;stroke-width:0.6;" x="223.2" xlink:href="#m8087ff9fd9" y="214.574332"/>
      </g>
     </g>
    </g>
    <g id="ytick_15">
     <g id="line2d_39">
      <g>
       <use style="stroke:#000000;stroke-width:0.6;" x="223.2" xlink:href="#m8087ff9fd9" y="202.76611"/>
      </g>
     </g>
    </g>
    <g id="ytick_16">
     <g id="line2d_40">
      <g>
       <use style="stroke:#000000;stroke-width:0.6;" x="223.2" xlink:href="#m8087ff9fd9" y="122.712516"/>
      </g>
     </g>
    </g>
    <g id="text_28">
     <!-- Logscale Magnitude -->
     <g transform="translate(120.88125 494.950225)rotate(-90)scale(0.4 -0.4)">
      <defs>
       <path d="M 64.59375 27.40625 
L 60.203125 27.40625 
C 57.90625 11.90625 53.59375 4.703125 36.90625 4.703125 
L 32.703125 4.703125 
C 27.59375 4.703125 25.5 5.296875 25.5 9.5 
L 25.5 62.796875 
C 25.5 67 26.40625 67.5 34.5 67.5 
L 36.296875 67.5 
L 36.296875 72.203125 
L 3.5 72.203125 
L 3.5 67.5 
L 5.296875 67.5 
C 13.40625 67.5 14.296875 67 14.296875 62.796875 
L 14.296875 9.40625 
C 14.296875 5.203125 13.40625 4.703125 5.296875 4.703125 
L 3.5 4.703125 
L 3.5 0 
L 62.5 0 
z
" id="TeXGyreScholaMath-Regular-76"/>
       <path d="M 46.59375 23.296875 
C 46.59375 37 37 48.09375 25.203125 48.09375 
C 13 48.09375 3.40625 37.203125 3.40625 23.203125 
C 3.40625 9.5 13 -1.5 25 -1.5 
C 37 -1.5 46.59375 9.5 46.59375 23.296875 
z
M 36.09375 23.296875 
C 36.09375 10 32.203125 2.796875 25 2.796875 
C 17.796875 2.796875 13.90625 10 13.90625 23.203125 
C 13.90625 36.796875 17.703125 43.796875 25.203125 43.796875 
C 32.203125 43.796875 36.09375 36.5 36.09375 23.296875 
z
" id="TeXGyreScholaMath-Regular-111"/>
       <path d="M 54.203125 43.703125 
C 54.203125 47.09375 51.5 49.5 47.59375 49.5 
C 44.40625 49.5 42.59375 48.5 38 44.296875 
C 33.796875 47.09375 30.59375 48.09375 25.59375 48.09375 
C 13.703125 48.09375 5.90625 41.5 5.90625 31.5 
C 5.90625 25.59375 9.09375 20.5 14.296875 18.09375 
C 7.59375 16.59375 4.796875 13.59375 4.796875 8.09375 
C 4.796875 3.703125 6.796875 1.09375 11.5 -0.5 
C 5.296875 -2.703125 2.296875 -5.90625 2.296875 -10 
C 2.296875 -16.59375 10 -20.296875 23.40625 -20.296875 
C 40.09375 -20.296875 48.5 -15 48.5 -4.5 
C 48.5 0.5 46.203125 4.5 42.5 6 
C 39.90625 7 36.703125 7.40625 29.796875 7.40625 
L 19.59375 7.40625 
C 14.09375 7.40625 13.796875 7.703125 12.59375 8.296875 
C 11.90625 8.703125 11.40625 9.796875 11.40625 10.90625 
C 11.40625 13.90625 14.09375 15.203125 20.796875 15.40625 
C 30.296875 15.59375 31.796875 15.796875 35.09375 17.296875 
C 41.09375 20 44.5 25.203125 44.5 31.796875 
C 44.5 35.796875 43.59375 38.296875 40.796875 41.59375 
C 42.5 43.40625 43.40625 44 44.203125 44 
C 45.296875 44 45.40625 38.90625 49.703125 38.90625 
C 52.203125 38.90625 54.203125 41 54.203125 43.703125 
z
M 35.296875 31.703125 
C 35.296875 23.90625 31.5 19.203125 25.09375 19.203125 
C 18.90625 19.203125 15 23.90625 15 31.40625 
C 15 39.296875 18.796875 43.796875 25.5 43.796875 
C 31.796875 43.796875 35.296875 39.40625 35.296875 31.703125 
z
M 41.5 -7.203125 
C 41.5 -12.90625 35 -16.203125 23.796875 -16.203125 
C 15.40625 -16.203125 10.59375 -13.703125 10.59375 -9.203125 
C 10.59375 -5.90625 12.40625 -3.703125 17.203125 -1.203125 
L 24.59375 -1.203125 
C 32.90625 -1.203125 33.5 -1.203125 35 -1.40625 
C 39 -1.796875 41.5 -4 41.5 -7.203125 
z
" id="TeXGyreScholaMath-Regular-103"/>
       <path d="M 42.09375 13.90625 
C 42.09375 18.296875 40.703125 21.703125 37.90625 24 
C 35.5 26.09375 33.5 26.90625 27.40625 28.203125 
L 22.40625 29.296875 
C 16.90625 30.5 16.90625 30.5 15.09375 31.5 
C 12.90625 32.5 11.59375 34.59375 11.59375 36.796875 
C 11.59375 40.796875 15.40625 43.703125 20.90625 43.703125 
C 24.703125 43.703125 27.796875 42.40625 30.59375 39.703125 
C 32.796875 37.5 33.90625 35.5 35.5 30.90625 
L 39 30.90625 
L 39 47.703125 
L 35.5 47.703125 
L 32.59375 44.09375 
C 29 46.90625 25.40625 48.09375 20.40625 48.09375 
C 11.59375 48.09375 5.796875 42.296875 5.796875 33.59375 
C 5.796875 29.703125 7.09375 26.40625 9.296875 24.40625 
C 11.59375 22.296875 13.90625 21.296875 19.90625 19.90625 
L 25.203125 18.703125 
C 33.09375 16.796875 35.90625 14.796875 35.90625 10.796875 
C 35.90625 6.09375 31.796875 2.796875 25.90625 2.796875 
C 17.5 2.796875 11.5 8.203125 9.09375 18.203125 
L 5.09375 18.203125 
L 5.09375 -0.703125 
L 8.59375 -0.703125 
L 12.09375 3.40625 
C 16.203125 0.09375 20.796875 -1.5 25.796875 -1.5 
C 35.59375 -1.5 42.09375 4.59375 42.09375 13.90625 
z
" id="TeXGyreScholaMath-Regular-115"/>
       <path d="M 54.296875 5.09375 
C 54.296875 5.796875 53.796875 6.296875 53.296875 6.296875 
C 51.90625 6.296875 49.59375 5.203125 49 5.203125 
C 46.203125 5.203125 45.203125 7.09375 45.203125 12.09375 
L 45.203125 32.203125 
C 45.203125 45 38.09375 48.09375 26.59375 48.09375 
C 15.40625 48.09375 7.09375 42.796875 7.09375 35.59375 
C 7.09375 31.796875 9.40625 29.40625 12.90625 29.40625 
C 16 29.40625 18.296875 31.5 18.296875 34.5 
C 18.296875 36.296875 16.09375 39.40625 16.09375 39.90625 
C 16.09375 42 20.203125 43.796875 25 43.796875 
C 31.703125 43.796875 35.796875 41.59375 35.796875 32.796875 
L 35.796875 28.90625 
C 12.5 24.90625 4.40625 20 4.40625 10.203125 
C 4.40625 3.09375 10.09375 -1.5 18.90625 -1.5 
C 25.796875 -1.5 32 1.296875 36.296875 6.40625 
C 37.90625 1.296875 40.40625 -0.703125 45.09375 -0.703125 
C 49.59375 -0.703125 54.296875 2.203125 54.296875 5.09375 
z
M 35.796875 20 
C 35.796875 14 35.5 12.59375 33.796875 10 
C 31.296875 6.296875 26.703125 3.796875 22.40625 3.796875 
C 17.90625 3.796875 14.5 7.09375 14.5 11.59375 
C 14.5 18.703125 18.5 21.703125 35.796875 24.59375 
z
" id="TeXGyreScholaMath-Regular-97"/>
       <path d="M 28.703125 0 
L 28.703125 3.59375 
L 27 3.59375 
C 20.5 3.59375 20.40625 4.296875 20.40625 8.296875 
L 20.40625 73.703125 
L 1.90625 72.59375 
L 1.90625 68.296875 
L 6.796875 68.296875 
C 10.40625 68.296875 11 67.59375 11 63.296875 
L 11 8.296875 
C 11 4.296875 10.90625 3.59375 4.5 3.59375 
L 2.796875 3.59375 
L 2.796875 0 
z
" id="TeXGyreScholaMath-Regular-108"/>
       <path d="M 91.296875 0 
L 91.296875 4.703125 
L 89.5 4.703125 
C 81.40625 4.703125 80.5 5.09375 80.5 9.40625 
L 80.5 62.796875 
C 80.5 67 81.40625 67.5 89.5 67.5 
L 91.296875 67.5 
L 91.296875 72.203125 
L 66.203125 72.203125 
L 47.90625 18.90625 
L 28.703125 72.203125 
L 2.90625 72.203125 
L 2.90625 67.5 
L 4.796875 67.5 
C 12.90625 67.5 13.796875 67 13.796875 62.796875 
L 13.796875 21.59375 
C 13.796875 8 11.796875 5.09375 2.203125 4.703125 
L 2.203125 0 
L 30.703125 0 
L 30.703125 4.703125 
C 21.203125 5.09375 19.203125 8 19.203125 21.59375 
L 19.203125 65.796875 
L 43 0 
L 47 0 
L 69.296875 65.796875 
L 69.296875 9.40625 
C 69.296875 5.09375 68.40625 4.703125 60.296875 4.703125 
L 58.5 4.703125 
L 58.5 0 
z
" id="TeXGyreScholaMath-Regular-77"/>
       <path d="M 28.90625 0 
L 28.90625 3.59375 
L 27.703125 3.59375 
C 21.203125 3.59375 20.59375 4.296875 20.59375 8.296875 
L 20.59375 46.59375 
L 1.796875 45.5 
L 1.796875 41.203125 
L 6.90625 41.203125 
C 10.59375 41.203125 11.203125 40.40625 11.203125 36.203125 
L 11.203125 8.296875 
C 11.203125 4.296875 10.59375 3.59375 4.203125 3.59375 
L 3 3.59375 
L 3 0 
z
M 20.90625 61 
C 20.90625 63.703125 18.59375 66 15.90625 66 
C 13.203125 66 10.90625 63.703125 10.90625 61 
C 10.90625 58.296875 13.203125 56 15.796875 56 
C 18.59375 56 20.90625 58.203125 20.90625 61 
z
" id="TeXGyreScholaMath-Regular-105"/>
       <path d="M 37.40625 15.90625 
C 37.40625 16.5 37.40625 17.203125 37.296875 18.203125 
L 33.09375 18.203125 
C 32.796875 9.203125 30.203125 4.59375 25.296875 4.59375 
C 20.703125 4.59375 19.40625 7.09375 19.40625 15 
L 19.40625 42.296875 
L 34.09375 42.296875 
L 34.09375 46.59375 
L 19.40625 46.59375 
L 19.40625 66.40625 
L 15.296875 66.40625 
C 14.296875 53.40625 9.90625 46.796875 1.796875 46.203125 
L 1.796875 42.296875 
L 10 42.296875 
L 10 16.796875 
C 10 9.703125 10.203125 7.296875 11.203125 5 
C 12.90625 0.796875 16.703125 -1.5 22.59375 -1.5 
C 32.5 -1.5 37.40625 6.40625 37.40625 15.90625 
z
" id="TeXGyreScholaMath-Regular-116"/>
       <path d="M 55.40625 0 
L 55.40625 4.296875 
L 53.59375 4.296875 
C 48.203125 4.296875 47.40625 5.296875 47.40625 11.59375 
L 47.40625 73.703125 
L 27.796875 72.59375 
L 27.796875 68.296875 
L 33.703125 68.296875 
C 37.296875 68.296875 38 67.59375 38 63.296875 
L 38 40.703125 
C 34.296875 45.796875 30 48.09375 24.203125 48.09375 
C 12.90625 48.09375 4.296875 37.203125 4.296875 22.796875 
C 4.296875 8.59375 12.59375 -1.5 24.203125 -1.5 
C 30.5 -1.5 34.796875 1.203125 38 7.203125 
L 38 -0.703125 
z
M 37.90625 23.09375 
C 37.90625 11.5 33.296875 3.90625 26.09375 3.90625 
C 19.09375 3.90625 14.796875 10.5 14.796875 21.59375 
C 14.796875 27.5 15.40625 32 16.703125 35.40625 
C 18.40625 39.796875 22.09375 42.703125 26.203125 42.703125 
C 30.296875 42.703125 34.203125 39.703125 36 35.09375 
C 37.203125 32.09375 37.90625 27.90625 37.90625 23.09375 
z
" id="TeXGyreScholaMath-Regular-100"/>
      </defs>
      <use xlink:href="#TeXGyreScholaMath-Regular-76"/>
      <use x="66.699997" xlink:href="#TeXGyreScholaMath-Regular-111"/>
      <use x="116.699982" xlink:href="#TeXGyreScholaMath-Regular-103"/>
      <use x="170.399979" xlink:href="#TeXGyreScholaMath-Regular-115"/>
      <use x="216.699966" xlink:href="#TeXGyreScholaMath-Regular-99"/>
      <use x="261.09996" xlink:href="#TeXGyreScholaMath-Regular-97"/>
      <use x="316.699951" xlink:href="#TeXGyreScholaMath-Regular-108"/>
      <use x="348.199936" xlink:href="#TeXGyreScholaMath-Regular-101"/>
      <use x="398.199921" xlink:href="#TeXGyreScholaMath-Regular-32"/>
      <use x="425.999908" xlink:href="#TeXGyreScholaMath-Regular-77"/>
      <use x="520.399902" xlink:href="#TeXGyreScholaMath-Regular-97"/>
      <use x="575.999893" xlink:href="#TeXGyreScholaMath-Regular-103"/>
      <use x="629.69989" xlink:href="#TeXGyreScholaMath-Regular-110"/>
      <use x="690.799881" xlink:href="#TeXGyreScholaMath-Regular-105"/>
      <use x="722.299866" xlink:href="#TeXGyreScholaMath-Regular-116"/>
      <use x="761.19986" xlink:href="#TeXGyreScholaMath-Regular-117"/>
      <use x="822.29985" xlink:href="#TeXGyreScholaMath-Regular-100"/>
      <use x="879.699844" xlink:href="#TeXGyreScholaMath-Regular-101"/>
     </g>
    </g>
   </g>
   <g id="patch_75">
    <path d="M 223.2 510.5376 
L 223.2 107.4816 
" style="fill:none;stroke:#000000;stroke-linecap:square;stroke-linejoin:miter;stroke-width:2;"/>
   </g>
   <g id="patch_76">
    <path d="M 1607.04 510.5376 
L 1607.04 107.4816 
" style="fill:none;stroke:#000000;stroke-linecap:square;stroke-linejoin:miter;stroke-width:2;"/>
   </g>
   <g id="patch_77">
    <path d="M 223.2 510.5376 
L 1607.04 510.5376 
" style="fill:none;stroke:#000000;stroke-linecap:square;stroke-linejoin:miter;stroke-width:2;"/>
   </g>
   <g id="patch_78">
    <path d="M 223.2 107.4816 
L 1607.04 107.4816 
" style="fill:none;stroke:#000000;stroke-linecap:square;stroke-linejoin:miter;stroke-width:2;"/>
   </g>
   <g id="legend_1">
    <g id="patch_79">
     <path d="M 1330.28375 312.1691 
L 1579.04 312.1691 
Q 1587.04 312.1691 1587.04 304.1691 
L 1587.04 135.4816 
Q 1587.04 127.4816 1579.04 127.4816 
L 1330.28375 127.4816 
Q 1322.28375 127.4816 1322.28375 135.4816 
L 1322.28375 304.1691 
Q 1322.28375 312.1691 1330.28375 312.1691 
z
" style="fill:#ffffff;opacity:0.8;stroke:#cccccc;stroke-linejoin:miter;"/>
    </g>
    <g id="patch_80">
     <path d="M 1338.28375 172.96285 
L 1418.28375 172.96285 
L 1418.28375 144.96285 
L 1338.28375 144.96285 
z
" style="fill:url(#h8af0a39ca9);stroke:#000000;stroke-linejoin:miter;"/>
    </g>
    <g id="text_29">
     <!-- Idle -->
     <g transform="translate(1450.28375 172.96285)scale(0.4 -0.4)">
      <defs>
       <path d="M 36.90625 0 
L 36.90625 4.703125 
L 34.90625 4.703125 
C 26.90625 4.703125 26 5.203125 26 9.40625 
L 26 62.796875 
C 26 67 26.90625 67.5 34.90625 67.5 
L 36.90625 67.5 
L 36.90625 72.203125 
L 3.796875 72.203125 
L 3.796875 67.5 
L 5.796875 67.5 
C 13.90625 67.5 14.796875 67 14.796875 62.796875 
L 14.796875 9.40625 
C 14.796875 5.203125 13.90625 4.703125 5.796875 4.703125 
L 3.796875 4.703125 
L 3.796875 0 
z
" id="TeXGyreScholaMath-Regular-73"/>
      </defs>
      <use xlink:href="#TeXGyreScholaMath-Regular-73"/>
      <use x="40.699997" xlink:href="#TeXGyreScholaMath-Regular-100"/>
      <use x="98.099991" xlink:href="#TeXGyreScholaMath-Regular-108"/>
      <use x="129.599976" xlink:href="#TeXGyreScholaMath-Regular-101"/>
     </g>
    </g>
    <g id="patch_81">
     <path d="M 1338.28375 230.52535 
L 1418.28375 230.52535 
L 1418.28375 202.52535 
L 1338.28375 202.52535 
z
" style="fill:#7c7c7c;stroke:#000000;stroke-linejoin:miter;"/>
    </g>
    <g id="text_30">
     <!-- Stone -->
     <g transform="translate(1450.28375 230.52535)scale(0.4 -0.4)">
      <defs>
       <path d="M 59 20.5 
C 59 26.703125 56.90625 32 53 35.796875 
C 50.296875 38.40625 46.40625 40.09375 38.40625 42.09375 
L 27.703125 44.796875 
C 18.796875 47.09375 14.59375 51 14.59375 57.09375 
C 14.59375 64.09375 20.296875 68.90625 28.796875 68.90625 
C 35.796875 68.90625 41.5 65.90625 45.5 60.203125 
C 48.40625 56.09375 50.203125 51.90625 51.5 46.796875 
L 55.796875 46.796875 
L 54.59375 72.796875 
L 50.90625 72.796875 
L 46.90625 66.796875 
C 42.203125 71.296875 35.796875 73.703125 28.703125 73.703125 
C 15.59375 73.703125 6.796875 65.296875 6.796875 52.796875 
C 6.796875 41.90625 12.203125 36.5 26.90625 32.703125 
L 36.40625 30.296875 
C 43.796875 28.40625 44.5 28.203125 46.59375 26.59375 
C 49.59375 24.296875 51.203125 21 51.203125 17.09375 
C 51.203125 13.09375 49.703125 9.796875 46.703125 7.09375 
C 43.40625 4.203125 40.09375 3.09375 34.59375 3.09375 
C 27.203125 3.09375 21.90625 5.40625 17.203125 10.59375 
C 13 15.296875 10.90625 20 9.40625 27.703125 
L 5.09375 27.703125 
L 5.5 -0.796875 
L 9.40625 -0.796875 
L 13.90625 6 
C 20.59375 0.5 26.203125 -1.5 34.90625 -1.5 
C 49.59375 -1.5 59 7.09375 59 20.5 
z
" id="TeXGyreScholaMath-Regular-83"/>
      </defs>
      <use xlink:href="#TeXGyreScholaMath-Regular-83"/>
      <use x="62.999985" xlink:href="#TeXGyreScholaMath-Regular-116"/>
      <use x="101.899979" xlink:href="#TeXGyreScholaMath-Regular-111"/>
      <use x="151.899963" xlink:href="#TeXGyreScholaMath-Regular-110"/>
      <use x="212.999954" xlink:href="#TeXGyreScholaMath-Regular-101"/>
     </g>
    </g>
    <g id="patch_82">
     <path d="M 1338.28375 288.08785 
L 1418.28375 288.08785 
L 1418.28375 260.08785 
L 1338.28375 260.08785 
z
" style="stroke:#000000;stroke-linejoin:miter;"/>
    </g>
    <g id="text_31">
     <!-- Tissue -->
     <g transform="translate(1450.28375 288.08785)scale(0.4 -0.4)">
      <defs>
       <path d="M 64.796875 44.40625 
L 63.296875 72.203125 
L 3.40625 72.203125 
L 1.90625 44.40625 
L 6.203125 44.40625 
C 6.90625 49.40625 7.796875 53.203125 8.90625 56.40625 
C 11.5 63.703125 16.296875 67.5 23.09375 67.5 
C 26.40625 67.5 27.796875 66.40625 27.796875 63.90625 
L 27.796875 9.40625 
C 27.796875 5.203125 26.90625 4.703125 18.796875 4.703125 
L 16.203125 4.703125 
L 16.203125 0 
L 50.5 0 
L 50.5 4.703125 
L 47.90625 4.703125 
C 39.90625 4.703125 39 5.203125 39 9.40625 
L 39 63.90625 
C 39 66.40625 40.40625 67.5 43.703125 67.5 
C 49.796875 67.5 54.703125 64.09375 57.203125 58.09375 
C 58.703125 54.40625 59.703125 50.09375 60.5 44.40625 
z
" id="TeXGyreScholaMath-Regular-84"/>
      </defs>
      <use xlink:href="#TeXGyreScholaMath-Regular-84"/>
      <use x="66.699997" xlink:href="#TeXGyreScholaMath-Regular-105"/>
      <use x="98.199982" xlink:href="#TeXGyreScholaMath-Regular-115"/>
      <use x="144.499969" xlink:href="#TeXGyreScholaMath-Regular-115"/>
      <use x="190.799957" xlink:href="#TeXGyreScholaMath-Regular-117"/>
      <use x="251.899948" xlink:href="#TeXGyreScholaMath-Regular-101"/>
     </g>
    </g>
   </g>
  </g>
 </g>
 <defs>
  <clipPath id="p29f2ac4820">
   <rect height="403.056" width="1383.84" x="223.2" y="107.4816"/>
  </clipPath>
 </defs>
 <defs>
  <pattern height="72" id="h8af0a39ca9" patternUnits="userSpaceOnUse" width="72" x="0" y="0">
   <rect fill="#e3e3e3" height="73" width="73" x="0" y="0"/>
   <path d="M -36 36 
L 36 -36 
M -30 42 
L 42 -30 
M -24 48 
L 48 -24 
M -18 54 
L 54 -18 
M -12 60 
L 60 -12 
M -6 66 
L 66 -6 
M 0 72 
L 72 0 
M 6 78 
L 78 6 
M 12 84 
L 84 12 
M 18 90 
L 90 18 
M 24 96 
L 96 24 
M 30 102 
L 102 30 
M 36 108 
L 108 36 
" style="fill:#000000;stroke:#000000;stroke-linecap:butt;stroke-linejoin:miter;stroke-width:1.0;"/>
  </pattern>
 </defs>
</svg>
